<svg width="500" height="409" viewBox="0 0 500 409" fill="none" xmlns="http://www.w3.org/2000/svg">
<path d="M444.235 361.078C419.338 342.191 376.757 295.323 432.831 221.754C502.173 130.775 419.129 93.449 339.53 97.3436C275.492 100.478 203.422 20.0938 131.529 34.4614C36.1046 53.5305 98.064 135.579 33.3631 179.784C-21.815 217.484 1.87463 332.355 73.6891 361.078H444.235Z" fill="#E8E8F9"/>
<path d="M454.966 316.802C458.553 314.517 460.797 310.624 461.167 306.392C462.001 296.838 461.973 274.638 443.776 274.027C432.737 273.656 425.331 293.228 431.688 305.946C437.15 316.872 447.085 321.825 454.966 316.802Z" fill="#E8E8F9"/>
<path d="M330.588 78.05C330.588 78.05 351.398 100.512 372.402 85.5622C389.382 73.4776 368.862 56.8239 353.202 54.6045C336.208 52.1979 316.875 61.9076 330.588 78.05Z" fill="#E8E8F9"/>
<path d="M39.1144 153.129C39.1144 153.129 60.5242 132.56 45.6106 112.515C33.5536 96.3103 17.777 116.49 15.9216 131.688C13.9082 148.182 23.7041 166.709 39.1144 153.129Z" fill="#E8E8F9"/>
<path d="M476.672 363.861C476.672 372.058 374.75 378.705 249.022 378.705C123.296 378.705 21.3752 372.058 21.3752 363.861C21.3752 355.663 123.296 349.016 249.022 349.016C374.75 349.016 476.672 355.663 476.672 363.861Z" fill="#E8E8F9"/>
<path d="M468.865 191.361C458.334 207.993 473.759 205.73 466.099 218.225C459.113 229.614 443.642 223.543 449.688 246.159C451.011 251.104 448.209 255.628 443.533 258.675C435.841 263.685 426.974 262.648 420.618 258.052C420.101 257.682 419.601 257.286 419.121 256.866C414.1 252.498 411.096 245.722 412.355 238.052C413.375 231.829 416.197 225.297 422.938 221.43C438.753 212.356 424.24 192 438.386 187.778C455.445 182.685 454.633 176.199 465 164.875C475.987 152.871 483.139 168.821 468.865 191.361Z" fill="#542BDA"/>
<path d="M460.895 185.15C460.603 185.627 436.407 225.181 420.419 257.882C419.902 257.512 419.402 257.117 418.922 256.697C434.967 223.965 459.012 184.653 459.306 184.177C459.575 183.739 460.148 183.601 460.588 183.87C461.026 184.139 461.164 184.712 460.895 185.15Z" fill="#3700B3"/>
<path d="M482.165 235.695C463.691 253.012 483.624 255.154 470.057 268.245C457.691 280.176 440.389 267.645 440.621 297.739C440.673 304.322 435.726 309.05 428.925 311.338C417.732 315.102 407.028 310.962 400.599 303.196C400.077 302.57 399.581 301.916 399.12 301.239C394.277 294.187 392.724 284.787 396.765 275.644C400.042 268.226 405.661 261.003 415.299 258.356C437.913 252.146 426.411 222.141 445.382 221.435C468.259 220.58 469.341 212.246 485.895 201.483C503.445 190.073 507.203 212.228 482.165 235.695Z" fill="#6B5EFF"/>
<path d="M474.668 225.859C474.152 226.359 431.276 267.813 400.826 303.38C400.304 302.754 399.808 302.1 399.346 301.423C429.877 265.838 472.485 224.636 473.004 224.137C473.479 223.677 474.238 223.691 474.698 224.167C475.158 224.642 475.145 225.4 474.668 225.859Z" fill="#542BDA"/>
<path d="M34.6619 35.6101C42.1548 53.8109 27.3531 48.9166 32.7352 62.5473C37.6402 74.9702 53.9311 71.6614 44.0596 92.8918C41.9004 97.5365 43.8765 102.475 47.9536 106.282C54.6625 112.546 63.5767 113.056 70.6321 109.627C71.2046 109.352 71.766 109.047 72.3121 108.717C78.0144 105.282 82.1452 99.1263 82.234 91.3546C82.3075 85.049 80.6582 78.1291 74.6895 73.156C60.6839 61.4874 78.5045 43.9435 65.3027 37.3434C49.3825 29.3811 51.3048 23.1335 43.0562 10.1905C34.3131 -3.53102 24.5064 10.9449 34.6619 35.6101Z" fill="#542BDA"/>
<path d="M43.1316 31.0813C43.3366 31.6013 60.3173 74.7367 70.4026 109.707C70.975 109.433 71.5354 109.128 72.0815 108.797C61.9457 73.7874 45.0725 30.9181 44.8664 30.3969C44.6767 29.9185 44.1349 29.6852 43.6568 29.8736C43.1776 30.0619 42.943 30.6028 43.1316 31.0813Z" fill="#3700B3"/>
<path d="M13.4879 83.1787C29.2897 102.957 9.25615 102.229 20.8054 117.123C31.3348 130.699 50.2543 120.768 45.7111 150.519C44.7176 157.028 48.934 162.415 55.3381 165.651C65.8752 170.976 77.0637 168.407 84.5391 161.641C85.1466 161.095 85.73 160.518 86.2849 159.914C92.088 153.627 94.972 144.546 92.2832 134.919C90.1032 127.11 85.5765 119.158 76.4178 115.161C54.9279 105.784 70.6102 77.7304 51.9375 74.3209C29.4169 70.2061 29.5419 61.8037 14.6996 48.7852C-1.03314 34.9848 -7.92848 56.3751 13.4879 83.1787Z" fill="#6B5EFF"/>
<path d="M22.7632 74.251C23.2029 74.8192 59.6963 121.974 84.7347 161.526C85.3411 160.98 85.9256 160.403 86.4794 159.799C61.3642 120.218 25.1 73.3531 24.6581 72.7849C24.2524 72.2615 23.5001 72.1673 22.9759 72.5714C22.4529 72.9765 22.3575 73.7287 22.7632 74.251Z" fill="#542BDA"/>
<path d="M230.418 89.9197C222.626 84.5918 203.112 97.7341 192.907 113.689L201.959 88.3682C205.236 85.5313 210.972 81.5501 219.935 78.3782C233.875 73.4456 247.847 65.7176 240.04 60.3799C232.725 55.3783 215.078 66.656 204.502 81.2578L216.127 48.7409C218.289 47.0799 221.581 45.062 226.285 43.3977C235.069 40.2882 243.874 35.4191 238.956 32.0544C234.686 29.1353 224.832 35.0139 218.104 43.2083L221.873 32.6686C223.596 29.6072 226.047 25.2319 229.91 21.241C238.859 11.9955 245.626 1.59485 238.723 0.0882463C231.814 -1.42055 220.508 16.6971 218.728 33.0661L216.789 38.4892C218.295 26.5831 214.008 12.1685 208.03 11.6582C202.09 11.1513 205.815 20.4877 210.643 28.4477C214.318 34.5081 215.332 39.317 215.605 41.8046L206.446 67.4202C208.777 48.5592 201.988 25.8133 192.527 25.0064C183.101 24.2016 189.013 39.0159 196.673 51.6468C202.461 61.1934 204.092 68.7856 204.538 72.759L193.556 103.476C195.503 84.8382 188.826 62.2172 179.514 62.1438C172.334 62.088 174.532 72.2094 183.108 86.4981C188.935 96.2089 190.799 104.929 191.396 109.52L186.223 123.989C187.089 124.601 187.991 124.921 188.886 124.938L190.944 119.18C193.851 116.373 199.907 111.6 210.313 107.918C224.253 102.984 238.224 95.2574 230.418 89.9197Z" fill="#6B5EFF"/>
<path d="M98.262 362.152H102.58L102.429 362.019C100.862 358.297 98.6009 350.931 98.9353 339.913C99.3817 325.152 97.2323 309.35 89.4202 314.682C81.6235 320.002 86.818 342.924 98.0142 358.204L77.6593 340.602C76.1987 336.525 74.5615 329.744 74.8488 320.253C75.2951 305.493 73.1458 289.69 65.3348 295.02C58.014 300.016 62.1459 320.525 71.9439 335.659L45.8035 313.057C45.0369 310.441 44.3461 306.648 44.4974 301.667C44.7792 292.365 43.4239 282.407 38.5013 285.765C34.229 288.681 36.1458 299.981 41.3557 309.21L32.8835 301.885C30.6497 299.171 27.4542 295.305 25.1295 290.265C19.7419 278.585 12.4858 268.518 8.57758 274.396C4.66605 280.279 17.4808 297.367 32.1147 304.955L36.4748 308.724C25.907 303.009 10.898 301.774 8.25409 307.153C5.62776 312.497 15.6944 312.413 24.874 310.806C31.8625 309.582 36.7182 310.381 39.1395 311.029L59.7312 328.835C42.9699 319.831 19.2781 317.906 15.0957 326.416C10.9287 334.897 26.8994 334.764 41.4675 332.213C52.4751 330.285 60.1534 331.52 64.0222 332.545L88.7151 353.897C72.024 345.331 48.489 343.346 45.0457 351.987C42.3909 358.647 52.6363 360.27 69.0818 357.468C80.2582 355.563 89.0726 356.989 93.5752 358.098L98.262 362.152Z" fill="#6B5EFF"/>
<path d="M436.227 89.1206V362.174C436.227 364.706 434.17 366.757 431.636 366.757H57.4447C56.2648 366.757 55.1945 366.314 54.3797 365.587C53.4454 364.748 52.8555 363.531 52.8555 362.174V89.1206C52.8555 86.5891 54.9094 84.5361 57.4447 84.5361H431.636C433.147 84.5361 434.49 85.2686 435.328 86.3942C435.891 87.1563 436.227 88.099 436.227 89.1206Z" fill="#2E3062"/>
<path d="M436.66 88.7278V361.782C436.66 364.313 434.603 366.364 432.068 366.364H57.8774C56.6975 366.364 55.6273 365.922 54.8125 365.195L435.761 86.0015C436.324 86.7635 436.66 87.7062 436.66 88.7278Z" fill="#001030"/>
<path d="M426.168 100.335V350.689C426.168 353.475 423.903 355.736 421.111 355.736H69.6538C66.8619 355.736 64.5996 353.475 64.5996 350.689V100.335C64.5996 97.5474 66.8619 95.2864 69.6538 95.2864H421.111C423.903 95.2864 426.168 97.5474 426.168 100.335Z" fill="white"/>
<path d="M426.168 100.335V117.9H64.5996V100.335C64.5996 97.5474 66.8619 95.2864 69.6538 95.2864H421.111C423.903 95.2864 426.168 97.5474 426.168 100.335Z" fill="#E8E8F9"/>
<path d="M125.285 107.084C125.285 108.742 126.632 110.085 128.291 110.085H391.845C393.505 110.085 394.852 108.742 394.852 107.084C394.852 105.426 393.505 104.082 391.845 104.082H128.291C126.632 104.082 125.285 105.426 125.285 107.084Z" fill="white"/>
<path d="M83.8244 104.912V109.36C83.8244 109.998 83.1325 110.397 82.5798 110.078L80.6509 108.966L78.722 107.854C78.1682 107.534 78.1682 106.737 78.722 106.419L82.5798 104.194C83.1325 103.875 83.8244 104.274 83.8244 104.912Z" fill="#2E3062"/>
<path d="M93.9648 104.912V109.36C93.9648 109.998 94.6557 110.397 95.2095 110.078L97.1384 108.966L99.0673 107.854C99.621 107.534 99.621 106.737 99.0673 106.419L95.2095 104.194C94.6557 103.875 93.9648 104.274 93.9648 104.912Z" fill="#2E3062"/>
<path d="M136.711 190.322C133.377 190.322 130.12 189.958 126.939 189.229C123.797 188.463 121.21 187.447 119.179 186.183L123.548 176.296C125.464 177.407 127.61 178.308 129.986 178.997C132.362 179.649 134.642 179.975 136.826 179.975C138.704 179.975 140.045 179.802 140.85 179.457C141.655 179.074 142.057 178.518 142.057 177.79C142.057 176.947 141.521 176.315 140.448 175.893C139.413 175.472 137.688 175.012 135.274 174.514C132.17 173.862 129.583 173.173 127.514 172.444C125.445 171.678 123.643 170.452 122.111 168.766C120.578 167.041 119.811 164.723 119.811 161.81C119.811 159.281 120.52 156.982 121.938 154.912C123.356 152.843 125.464 151.214 128.261 150.026C131.097 148.838 134.527 148.244 138.551 148.244C141.31 148.244 144.011 148.551 146.656 149.164C149.338 149.739 151.695 150.601 153.726 151.751L149.645 161.58C145.698 159.587 141.961 158.591 138.436 158.591C134.948 158.591 133.205 159.434 133.205 161.12C133.205 161.925 133.722 162.538 134.757 162.96C135.791 163.343 137.497 163.765 139.873 164.224C142.938 164.799 145.525 165.47 147.633 166.236C149.741 166.964 151.561 168.172 153.094 169.858C154.665 171.544 155.451 173.843 155.451 176.756C155.451 179.285 154.742 181.584 153.324 183.654C151.906 185.685 149.779 187.313 146.943 188.54C144.146 189.728 140.735 190.322 136.711 190.322ZM192.942 179.17V189.402H159.487V149.164H192.195V159.396H172.823V164.109H189.838V173.882H172.823V179.17H192.942ZM225.584 182.389H210.294L207.592 189.402H193.796L211.386 149.164H224.722L242.311 189.402H228.286L225.584 182.389ZM221.848 172.617L217.939 162.5L214.03 172.617H221.848ZM261.721 179.285H258.042V189.402H244.476V149.164H263.848C267.565 149.164 270.804 149.777 273.563 151.003C276.322 152.23 278.449 153.992 279.943 156.292C281.438 158.591 282.185 161.274 282.185 164.339C282.185 167.214 281.534 169.724 280.231 171.87C278.928 174.016 277.05 175.721 274.597 176.986L283.047 189.402H268.562L261.721 179.285ZM268.504 164.339C268.504 162.845 268.044 161.695 267.125 160.89C266.205 160.047 264.825 159.626 262.986 159.626H258.042V169.053H262.986C264.825 169.053 266.205 168.651 267.125 167.846C268.044 167.003 268.504 165.834 268.504 164.339ZM308.117 190.322C303.863 190.322 300.031 189.44 296.62 187.677C293.209 185.876 290.527 183.385 288.573 180.205C286.656 176.986 285.698 173.345 285.698 169.283C285.698 165.221 286.656 161.599 288.573 158.419C290.527 155.2 293.209 152.709 296.62 150.946C300.031 149.145 303.863 148.244 308.117 148.244C312.025 148.244 315.513 148.934 318.579 150.314C321.644 151.693 324.173 153.686 326.166 156.292L317.601 163.937C315.11 160.795 312.179 159.223 308.806 159.223C305.971 159.223 303.69 160.143 301.966 161.983C300.242 163.784 299.379 166.217 299.379 169.283C299.379 172.349 300.242 174.801 301.966 176.641C303.69 178.442 305.971 179.342 308.806 179.342C312.179 179.342 315.11 177.771 317.601 174.629L326.166 182.274C324.173 184.88 321.644 186.873 318.579 188.252C315.513 189.632 312.025 190.322 308.117 190.322ZM369.746 149.164V189.402H356.18V174.571H343.649V189.402H330.083V149.164H343.649V163.42H356.18V149.164H369.746Z" fill="#524E84"/>
<path d="M370.152 230.886C370.152 238.037 364.346 243.834 357.185 243.834H132.378C125.217 243.834 119.412 238.037 119.412 230.886C119.412 223.735 125.217 217.939 132.378 217.939H357.185C364.346 217.939 370.152 223.735 370.152 230.886Z" fill="#E8E8F9"/>
<path d="M356.674 217.939H321.041V243.834H356.674C363.834 243.834 369.641 238.037 369.641 230.886C369.641 223.735 363.834 217.939 356.674 217.939Z" fill="#FFAA01"/>
<path d="M354.392 225.916C352.733 224.388 350.139 224.492 348.609 226.148C347.078 227.804 347.182 230.395 348.841 231.923C350.498 233.452 353.093 233.348 354.623 231.691C356.154 230.035 356.05 227.445 354.392 225.916ZM347.474 233.401C345 231.12 344.844 227.255 347.128 224.784C349.411 222.313 353.283 222.157 355.758 224.438C358.233 226.719 358.389 230.585 356.105 233.056C353.821 235.526 349.949 235.682 347.474 233.401Z" fill="white"/>
<path d="M340.943 240.664C340.534 240.288 340.509 239.652 340.886 239.243L347.634 231.943C348.011 231.535 348.648 231.51 349.057 231.886C349.466 232.263 349.491 232.899 349.114 233.308L342.367 240.607C341.989 241.016 341.352 241.041 340.943 240.664Z" fill="white"/>
<path d="M119.412 274.226C119.412 276.437 121.206 278.227 123.42 278.227H365.535C367.749 278.227 369.544 276.437 369.544 274.226C369.544 272.015 367.749 270.224 365.535 270.224H123.42C121.206 270.224 119.412 272.015 119.412 274.226Z" fill="#E8E8F9"/>
<path d="M119.412 293.772C119.412 295.983 121.206 297.774 123.42 297.774H365.535C367.749 297.774 369.544 295.983 369.544 293.772C369.544 291.562 367.749 289.77 365.535 289.77H123.42C121.206 289.77 119.412 291.562 119.412 293.772Z" fill="#E8E8F9"/>
<path d="M119.412 313.317C119.412 315.528 121.206 317.319 123.42 317.319H365.535C367.749 317.319 369.544 315.528 369.544 313.317C369.544 311.106 367.749 309.315 365.535 309.315H123.42C121.206 309.315 119.412 311.106 119.412 313.317Z" fill="#E8E8F9"/>
<path d="M99.5514 267.6C97.1795 269.19 93.9556 268.558 92.3622 266.191C90.77 263.824 91.4027 260.604 93.7735 259.013C96.1454 257.423 99.3694 258.055 100.963 260.422C102.555 262.789 101.922 266.009 99.5514 267.6ZM113.479 269.818L114.567 264.281L109.371 263.262C109.368 261.899 109.136 260.532 108.684 259.209L112.965 256.337L109.813 251.654L105.716 254.401C104.496 253.165 103.062 252.213 101.509 251.576L102.53 246.387L96.9843 245.301L95.9327 250.649C94.7944 250.711 93.6628 250.928 92.5585 251.305L89.6821 247.029L84.9909 250.176L87.7445 254.266C86.5053 255.486 85.5524 256.917 84.9142 258.468L80.3721 257.576L79.2832 263.113L83.9854 264.035C84.0654 265.484 84.3911 266.929 84.9833 268.308L80.8853 271.057L84.0369 275.741L88.3191 272.869C89.5473 273.938 90.9509 274.74 92.4499 275.266L91.4224 280.486L96.969 281.573L98.082 275.913C99.3014 275.779 100.51 275.467 101.672 274.968L104.425 279.06L109.116 275.913L106.24 271.638C107.005 270.761 107.634 269.796 108.123 268.766L113.479 269.818Z" fill="#E8E8F9"/>
<path d="M396.719 149.008C395.423 149.878 393.662 149.533 392.791 148.238C391.921 146.944 392.266 145.185 393.562 144.315C394.858 143.446 396.621 143.792 397.491 145.085C398.361 146.379 398.016 148.14 396.719 149.008ZM404.331 150.22L404.926 147.194L402.087 146.638C402.085 145.892 401.957 145.145 401.711 144.423L404.051 142.853L402.327 140.294L400.088 141.796C399.422 141.119 398.638 140.599 397.791 140.251L398.348 137.415L395.317 136.822L394.742 139.744C394.12 139.779 393.501 139.897 392.899 140.103L391.326 137.766L388.762 139.486L390.267 141.723C389.59 142.387 389.069 143.17 388.721 144.018L386.238 143.53L385.643 146.557L388.213 147.06C388.257 147.852 388.434 148.643 388.758 149.396L386.519 150.898L388.241 153.457L390.581 151.888C391.253 152.473 392.02 152.911 392.838 153.197L392.277 156.051L395.309 156.644L395.918 153.551C396.583 153.479 397.243 153.308 397.879 153.034L399.383 155.271L401.947 153.551L400.375 151.216C400.793 150.736 401.136 150.208 401.404 149.647L404.331 150.22Z" fill="#E8E8F9"/>
<path d="M92.3169 180.281C91.0207 181.15 89.2585 180.805 88.3878 179.511C87.5182 178.217 87.8636 176.457 89.1598 175.588C90.4549 174.719 92.2171 175.065 93.0878 176.358C93.9585 177.652 93.613 179.412 92.3169 180.281ZM99.9283 181.493L100.523 178.467L97.6836 177.91C97.6814 177.165 97.5542 176.418 97.3074 175.695L99.6476 174.125L97.9248 171.566L95.6856 173.069C95.0189 172.392 94.2359 171.872 93.3871 171.524L93.9442 168.688L90.9132 168.094L90.3397 171.017C89.7169 171.052 89.0984 171.17 88.4953 171.376L86.9238 169.038L84.36 170.758L85.8645 172.995C85.188 173.66 84.666 174.443 84.3173 175.29L81.8346 174.803L81.2402 177.829L83.8095 178.333C83.8545 179.125 84.0311 179.914 84.3556 180.669L82.1153 182.171L83.8381 184.73L86.1782 183.161C86.8504 183.745 87.6169 184.183 88.436 184.47L87.8746 187.323L90.9056 187.917L91.5142 184.824C92.1798 184.751 92.841 184.581 93.476 184.307L94.9805 186.544L97.5443 184.824L95.9718 182.488C96.3896 182.009 96.7339 181.481 97.0015 180.919L99.9283 181.493Z" fill="#E8E8F9"/>
<path d="M116.475 396.69C116.475 400.79 91.5152 404.113 60.7274 404.113C29.9374 404.113 4.98013 400.79 4.98013 396.69C4.98013 392.592 29.9374 389.269 60.7274 389.269C91.5152 389.269 116.475 392.592 116.475 396.69Z" fill="#E8E8F9"/>
<path d="M76.4779 214.156C81.6395 232.903 98.6443 238.137 98.6443 238.137C105.387 236.71 109.66 234.687 113.902 232.354C112.646 229.349 112.101 226.296 111.403 222.33C105.14 224.07 99.7321 225 99.7321 225C86.5117 218.881 78.4934 189.596 78.4934 189.596C70.6342 197.043 76.4779 214.156 76.4779 214.156Z" fill="#542BDA"/>
<path d="M32.3008 364.531L26.7071 372.002C26.7071 372.002 27.7292 375.342 31.8714 377.916L38.5598 369.319L32.3008 364.531Z" fill="#FBA691"/>
<path d="M30.9836 375.711C30.9836 375.711 33.6001 375.147 34.496 376.052C35.3908 376.955 37.6377 389.244 39.7399 391.932C41.8431 394.621 39.7267 396.05 38.4316 396.594C37.1377 397.14 18.5977 378.645 18.5977 378.645C18.5977 378.645 23.1803 372.321 25.391 371.094C27.6017 369.866 28.6369 374.41 30.9836 375.711Z" fill="#FFAA01"/>
<path d="M30.6492 382.696C30.5318 382.651 30.4331 382.559 30.3805 382.433C30.2796 382.186 30.3936 381.9 30.6349 381.794C30.716 381.757 32.6307 380.922 34.1615 381.204C36.2001 381.578 36.7056 383.325 36.7264 383.401C36.7977 383.657 36.6508 383.928 36.3986 384.004C36.1474 384.081 35.8843 383.934 35.813 383.676C35.7987 383.629 35.4336 382.431 33.9839 382.161C32.736 381.931 31.0187 382.678 31.0012 382.686C30.8838 382.737 30.7588 382.737 30.6492 382.696Z" fill="white"/>
<path d="M30.6492 380.741C30.5329 380.697 30.4331 380.605 30.3805 380.478C30.2796 380.232 30.3936 379.945 30.6349 379.839C30.716 379.804 32.6318 378.967 34.1626 379.25C36.2012 379.623 36.7056 381.371 36.7264 381.446C36.7977 381.702 36.6519 381.973 36.3997 382.05C36.1474 382.126 35.8843 381.979 35.813 381.721C35.7998 381.674 35.4336 380.475 33.9839 380.208C32.7305 379.977 31.0187 380.724 31.0023 380.731C30.8849 380.783 30.7588 380.783 30.6492 380.741Z" fill="white"/>
<path d="M31.6267 385.139C31.5105 385.094 31.4107 385.003 31.3592 384.876C31.2583 384.629 31.3712 384.343 31.6125 384.237C31.6936 384.201 33.6094 383.365 35.1402 383.648C37.1799 384.021 37.6843 385.768 37.704 385.843C37.7753 386.1 37.6295 386.371 37.3772 386.446C37.1261 386.524 36.8629 386.376 36.7917 386.119C36.7774 386.072 36.4112 384.873 34.9615 384.605C33.7081 384.374 31.9974 385.12 31.9798 385.129C31.8625 385.18 31.7375 385.18 31.6267 385.139Z" fill="white"/>
<path d="M66.5586 377.727L67.4062 387.015C67.4062 387.015 70.4026 388.815 75.206 387.961L74.42 377.104L66.5586 377.727Z" fill="#FBA691"/>
<path d="M73.4944 386.266C73.4944 386.266 75.1305 384.005 76.4574 384.081C77.7843 384.158 88.1218 392.127 91.6342 392.747C95.1466 393.365 94.5029 395.95 93.88 397.275C93.2571 398.601 66.0716 397.84 66.0716 397.84C66.0716 397.84 65.0704 389.078 65.9258 386.584C66.7822 384.091 70.7639 386.892 73.4944 386.266Z" fill="#FFAA01"/>
<path d="M79.9211 392.306C79.8027 392.347 79.6678 392.339 79.5472 392.276C79.3114 392.15 79.216 391.857 79.3334 391.621C79.3729 391.542 80.3137 389.678 81.6735 388.921C83.4818 387.91 84.9874 388.934 85.051 388.978C85.2703 389.131 85.3306 389.432 85.1848 389.651C85.04 389.87 84.7439 389.925 84.5246 389.772C84.483 389.744 83.4357 389.054 82.1472 389.772C81.0408 390.389 80.1953 392.058 80.1865 392.075C80.1295 392.19 80.033 392.269 79.9211 392.306Z" fill="white"/>
<path d="M77.9641 390.843C77.8457 390.882 77.7108 390.874 77.5902 390.811C77.3544 390.685 77.259 390.393 77.3763 390.156C77.4158 390.077 78.3567 388.214 79.7165 387.456C81.5258 386.444 83.0304 387.469 83.094 387.513C83.3133 387.666 83.3736 387.967 83.2277 388.186C83.0819 388.405 82.7869 388.46 82.5665 388.307C82.5259 388.279 81.4776 387.59 80.1902 388.307C79.0782 388.928 78.2383 390.593 78.2295 390.609C78.1725 390.725 78.076 390.804 77.9641 390.843Z" fill="white"/>
<path d="M81.8782 393.287C81.7597 393.327 81.626 393.319 81.5042 393.255C81.2685 393.129 81.1731 392.837 81.2904 392.6C81.3299 392.521 82.2708 390.659 83.6305 389.9C85.4399 388.888 86.9444 389.913 87.008 389.957C87.2273 390.11 87.2876 390.411 87.1418 390.63C86.9971 390.849 86.701 390.904 86.4817 390.751C86.44 390.723 85.3916 390.034 84.1043 390.751C82.9923 391.372 82.1523 393.037 82.1436 393.053C82.0865 393.169 81.99 393.249 81.8782 393.287Z" fill="white"/>
<path d="M60.7543 276.542L55.1047 323.228C55.1047 323.228 50.0363 330.094 45.2047 338.882C41.1495 346.257 30.3438 365.392 30.3438 365.392L36.8794 370.368L72.6742 333.33L82.2047 276.088L60.7543 276.542Z" fill="#001030"/>
<path d="M38.3218 370.455C37.7339 371.927 36.6372 372.929 35.3557 373.77L27.7665 367.372C28.4028 366.027 29.2743 364.866 30.3524 363.865L38.3218 370.455Z" fill="#2E3062"/>
<path d="M32.3008 278.521C32.3008 278.521 42.3817 303.266 55.4816 322.562C55.4816 322.562 57.4379 341.343 60.7847 351.339C62.2497 355.717 65.0866 376.455 65.0866 376.455L75.0249 376.005L72.4611 318.34L61.9481 276.576L32.3008 278.521Z" fill="#2E3062"/>
<path d="M75.324 375.972C75.9546 377.696 75.781 379.408 75.3244 381.121L63.8219 381.442C63.3326 379.79 63.1877 378.117 63.3472 376.422L75.324 375.972Z" fill="#524E84"/>
<path d="M77.9614 189.289C79.4604 191.156 82.4651 210.176 82.9366 229.484C82.9476 229.93 82.9585 230.374 82.9695 230.817C83.0189 232.86 83.0616 234.913 83.1033 236.966C83.145 238.993 83.1811 241.015 83.2151 243.022C83.2689 246.307 83.3171 249.541 83.3555 252.656C83.361 253.01 83.3632 253.362 83.3687 253.712C83.4038 256.75 83.4334 259.662 83.4553 262.38C83.4575 262.738 83.4608 263.089 83.463 263.438C83.4948 267.521 83.5134 271.134 83.5156 274.036V274.039C83.5189 274.446 83.5189 274.831 83.5189 275.21C83.5189 277.238 83.5134 278.848 83.4992 279.934C78.6851 281.228 73.8722 282.168 69.0615 282.741C68.9354 282.756 68.806 282.772 68.6777 282.787C68.4616 282.814 68.2511 282.838 68.0362 282.862C67.9835 282.867 67.932 282.872 67.8761 282.877C67.0416 282.969 66.2104 283.049 65.3737 283.117C61.2362 283.456 57.0999 283.532 52.9625 283.34C52.5984 283.323 52.2387 283.304 51.8747 283.281C51.5523 283.265 51.2244 283.245 50.8965 283.222C50.7507 283.214 50.6026 283.205 50.4546 283.191C50.1782 283.173 49.9063 283.151 49.6288 283.132C43.5505 282.639 37.471 281.578 31.3937 279.934C31.3619 277.544 31.3334 272.674 31.3235 266.392C31.3235 266.049 31.3213 265.7 31.3235 265.345C31.3158 258.418 31.3432 249.915 31.4255 241.159C31.4321 240.466 31.4397 239.774 31.4496 239.078C31.4573 238.276 31.4639 237.468 31.4737 236.659C31.4759 236.523 31.4759 236.385 31.4792 236.249C31.4836 236.06 31.4858 235.87 31.4891 235.68C31.4913 235.299 31.4957 234.915 31.5033 234.539C31.511 233.983 31.5176 233.431 31.5275 232.88C31.5318 232.461 31.5395 232.04 31.5439 231.622C31.5571 230.788 31.5713 229.953 31.5834 229.124C31.8773 211.742 32.4639 195.767 33.5836 191.701C33.6877 191.326 33.7974 191.052 33.9071 190.889C34.0255 190.707 34.1735 190.525 34.3391 190.337C34.5475 190.099 34.7898 189.854 35.0618 189.608C36.9271 187.893 40.1609 185.904 43.4408 184.015C43.8213 183.794 44.2073 183.576 44.5867 183.358C44.6449 183.326 53.4987 180.345 53.5546 180.311L62.8164 180.958C62.8164 180.958 75.7594 186.546 77.9614 189.289Z" fill="#6B5EFF"/>
<path d="M41.42 214.514C41.42 214.054 40.8333 213.853 40.5548 214.218C36.833 219.115 34.5883 224.452 33.2603 228.67C32.9204 229.753 32.6265 230.803 32.3721 231.802C32.3666 232.221 32.3589 232.641 32.3545 233.06C32.3446 233.611 32.3381 234.162 32.3304 234.719C32.3227 235.096 32.3183 235.478 32.3161 235.859C32.3128 236.051 32.3107 236.24 32.3063 236.43C32.3041 236.566 32.3041 236.704 32.3008 236.839C32.6506 234.725 33.2307 231.966 34.1847 228.932C35.4864 224.803 37.6872 219.584 41.3224 214.803C41.3849 214.719 41.42 214.618 41.42 214.514Z" fill="#542BDA"/>
<path d="M42.5712 264.765H42.5734C52.5743 264.721 61.1113 260.177 66.512 256.372C72.3524 252.258 75.8911 248.089 75.9262 248.047C76.0972 247.844 76.072 247.542 75.868 247.37C75.6641 247.199 75.3614 247.225 75.1903 247.428C75.1553 247.469 71.6802 251.559 65.9351 255.603C60.6518 259.32 52.31 263.761 42.5691 263.803C42.3026 263.805 42.0888 264.02 42.0898 264.286C42.0909 264.551 42.3059 264.765 42.5712 264.765Z" fill="#542BDA"/>
<path d="M53.4989 268.466C62.1784 268.466 70.8326 263.528 71.2252 263.3C71.4555 263.168 71.5344 262.875 71.4007 262.645C71.268 262.416 70.9741 262.337 70.7438 262.468C70.6418 262.527 60.4578 268.335 51.4296 267.401C51.1609 267.371 50.9285 267.567 50.901 267.83C50.8736 268.094 51.0655 268.331 51.3298 268.357C52.0503 268.432 52.7751 268.466 53.4989 268.466Z" fill="#542BDA"/>
<path d="M50.6415 196.209C59.0052 193.894 66.0233 186.828 66.3425 186.504C66.5289 186.314 66.5256 186.01 66.3359 185.824C66.1462 185.638 65.8413 185.642 65.6549 185.83C65.5726 185.913 57.3131 194.226 48.3628 195.735C48.0963 195.778 47.9231 196.027 47.968 196.289C48.0119 196.551 48.2608 196.727 48.5229 196.683C49.2368 196.563 49.9441 196.402 50.6415 196.209Z" fill="#542BDA"/>
<path d="M44.2829 157.248C44.2823 165.691 49.4895 171.511 57.9452 171.51C66.4009 171.51 72.2945 165.254 72.294 156.811C72.2935 148.368 67.2867 141.97 58.831 141.97C48.6896 141.97 44.2824 148.805 44.2829 157.248Z" fill="#2E3062"/>
<path d="M43.9385 159.389C43.9385 159.389 40.9832 154.927 42.5458 151.487C44.1644 147.928 43.343 148.707 43.7455 146.034C44.1479 143.36 46.0998 142.258 48.4356 141.873C50.7702 141.488 49.1703 138.803 52.4085 137.839C55.6456 136.875 58.2402 140.25 60.3215 138.738C62.4039 137.225 67.5173 136.482 68.9538 138.738C70.3904 140.994 71.6679 140.979 73.1987 140.906C75.0421 140.819 77.5127 143.72 75.8448 146.393C74.178 149.065 71.3696 148.004 71.7578 149.844C72.146 151.685 74.5201 154.927 71.3367 159.047C70.3728 160.295 43.9385 159.389 43.9385 159.389Z" fill="#2E3062"/>
<path d="M45.772 160.865C45.772 160.865 43.4231 157.738 41.6762 160.324C39.9282 162.91 42.3988 170.548 46.6755 168.685L45.772 160.865Z" fill="#FB876B"/>
<path d="M45.8054 166.518C45.6475 166.518 45.5028 166.414 45.4578 166.254C44.7944 163.896 42.3479 162.94 42.3226 162.931C42.1362 162.86 42.043 162.652 42.1132 162.466C42.1845 162.28 42.3928 162.186 42.5793 162.256C42.6933 162.298 45.3898 163.344 46.153 166.059C46.2079 166.251 46.096 166.45 45.903 166.505C45.8712 166.514 45.8372 166.518 45.8054 166.518Z" fill="#D45C48"/>
<path d="M43.4275 165.378C43.3606 165.378 43.2927 165.359 43.2324 165.321C43.0636 165.213 43.0164 164.989 43.1239 164.822C43.1414 164.793 43.5744 164.134 44.4798 163.731C44.6607 163.649 44.8756 163.731 44.9578 163.912C45.0389 164.094 44.9578 164.307 44.7747 164.388C44.0754 164.701 43.7344 165.207 43.7312 165.213C43.6621 165.32 43.5459 165.378 43.4275 165.378Z" fill="#D45C48"/>
<path d="M70.3977 160.865C70.3977 160.865 72.7477 157.738 74.4946 160.324C76.2414 162.91 73.7719 170.548 69.4941 168.685L70.3977 160.865Z" fill="#FB876B"/>
<path d="M69.8557 166.518C70.0136 166.518 70.1584 166.414 70.2033 166.254C70.8667 163.896 73.3132 162.94 73.3385 162.931C73.5238 162.86 73.6181 162.652 73.5479 162.466C73.4766 162.28 73.2683 162.186 73.0819 162.256C72.9678 162.298 70.2713 163.344 69.5081 166.059C69.4532 166.251 69.5651 166.45 69.7581 166.505C69.7899 166.514 69.8239 166.518 69.8557 166.518Z" fill="#D45C48"/>
<path d="M72.0363 165.378C72.1032 165.378 72.1711 165.359 72.2314 165.321C72.4003 165.213 72.4474 164.989 72.34 164.822C72.3213 164.793 71.8894 164.134 70.984 163.731C70.8031 163.649 70.5883 163.731 70.506 163.912C70.4249 164.094 70.506 164.307 70.6891 164.388C71.3885 164.701 71.7294 165.207 71.7327 165.213C71.8017 165.32 71.9179 165.378 72.0363 165.378Z" fill="#D45C48"/>
<path d="M63.9815 175.426V183.462C63.9815 183.462 62.7248 185.336 60.2037 185.634C56.676 186.052 52.8555 182.329 52.8555 182.329V175.96L63.9815 175.426Z" fill="#FBA691"/>
<path d="M63.9815 175.426V178.796C61.9232 181.078 58.266 181.647 52.8555 180.85V175.96L63.9815 175.426Z" fill="#FB876B"/>
<path d="M44.1981 160.715C44.2288 161.155 44.2661 161.6 44.3099 162.05C44.424 163.182 44.5764 164.344 44.7837 165.502C44.7924 165.543 44.7968 165.582 44.8045 165.618C45.8265 171.22 48.1239 176.727 53.0728 178.492C64.2865 182.489 68.2901 172.89 69.8922 167.293C70.0688 166.671 70.2289 165.98 70.3693 165.242C70.3747 165.214 70.3791 165.183 70.3879 165.149C70.5425 164.32 70.6774 163.438 70.7914 162.529C70.8781 161.856 70.9504 161.172 71.0151 160.485C71.1785 158.812 71.2849 157.134 71.3551 155.646C71.5185 152.244 69.4777 149.114 66.2856 147.892C61.6865 146.127 54.7045 144.729 48.0866 148.475C45.6423 149.857 44.1104 152.42 44.0555 155.224C44.027 156.772 44.05 158.672 44.1981 160.715Z" fill="#FBA691"/>
<path d="M57.9639 173C57.0356 173 56.2149 172.592 56.1803 172.574C56.0011 172.484 55.9473 172.292 56.056 172.147C56.1671 172.002 56.4001 171.957 56.5793 172.046C56.5864 172.049 57.2554 172.379 57.9639 172.379C58.7308 172.379 59.4177 172.048 59.4249 172.045C59.6041 171.957 59.8371 172.005 59.9458 172.151C60.0533 172.296 59.9959 172.487 59.8179 172.575C59.7809 172.593 58.9471 173 57.9639 173Z" fill="#FD8E73"/>
<path d="M57.1645 169.853C63.0477 169.048 64.5094 170.549 64.7847 172.289C63.1903 173.964 61.4094 174.93 59.7722 175.298C57.7534 175.756 53.6642 175.714 50.6793 173.365C50.3799 172.012 50.0389 168.062 57.1645 169.853ZM44.0449 160.997C44.0756 161.436 44.1129 161.882 44.1568 162.332C44.2708 163.464 44.4232 164.627 44.6305 165.783C44.6393 165.825 44.6448 165.864 44.6513 165.9C45.6734 171.502 47.9707 177.008 52.9196 178.774C64.1333 182.771 68.137 173.172 69.7391 167.574C69.9156 166.953 70.0757 166.263 70.2161 165.525C70.2216 165.496 70.2271 165.466 70.2347 165.432C70.3904 164.603 70.5253 163.72 70.6394 162.811C70.7249 162.138 70.7973 161.455 70.862 160.766L69.182 161.204C68.7017 163.739 67.9812 167.43 67.0426 169.151C65.572 165.568 57.3981 168.528 57.3981 168.528C57.3981 168.528 50.1091 165.942 47.6406 168.512C46.4673 165.532 45.4244 161.204 45.4244 161.204L44.0449 160.997Z" fill="#2E3062"/>
<path d="M53.834 161.252C53.834 162.062 53.4151 162.72 52.8986 162.72C52.3821 162.72 51.9654 162.062 51.9654 161.252C51.9654 160.44 52.3821 159.783 52.8986 159.783C53.4151 159.783 53.834 160.44 53.834 161.252Z" fill="#2E3062"/>
<path d="M64.5996 161.252C64.5996 162.062 64.1818 162.72 63.6642 162.72C63.1488 162.72 62.731 162.062 62.731 161.252C62.731 160.44 63.1488 159.783 63.6642 159.783C64.1818 159.783 64.5996 160.44 64.5996 161.252Z" fill="#2E3062"/>
<path d="M66.2287 156.425C66.2287 156.425 63.279 155.261 61.006 156.241L61.2347 157.502C61.2347 157.502 64.5674 157.22 66.2479 157.9C66.3978 157.415 66.4206 156.924 66.2287 156.425Z" fill="#2E3062"/>
<path d="M49.6525 156.239C49.6525 156.239 52.6023 155.075 54.873 156.055L54.6465 157.316C54.6465 157.316 51.3138 157.034 49.6322 157.714C49.4835 157.229 49.4604 156.739 49.6525 156.239Z" fill="#2E3062"/>
<path d="M58.368 167.866C57.7627 167.939 57.1333 167.778 57.0357 167.752C56.8438 167.699 56.7297 167.501 56.7824 167.308C56.835 167.116 57.0335 167.002 57.2254 167.054C57.5664 167.146 58.3691 167.258 58.6817 167.015C58.742 166.968 58.8209 166.88 58.8176 166.659C58.7935 165.393 57.9371 161.242 57.9283 161.2C57.8888 161.005 58.0138 160.815 58.209 160.774C58.4053 160.732 58.5961 160.859 58.6367 161.054C58.6718 161.227 59.5151 165.314 59.5392 166.647C59.5491 167.149 59.3199 167.433 59.1247 167.585C58.913 167.751 58.6422 167.832 58.368 167.866Z" fill="#FB876B"/>
<path d="M70.9726 160.922H69.3343C69.5153 159.28 68.9176 157.296 68.4242 155.973C67.3057 152.975 69.6874 151.653 67.7607 150.151C65.834 148.647 61.0387 149.292 57.7039 149.183C54.3495 149.075 48.9564 149.123 47.6482 149.425C46.3356 149.725 47.055 151.9 47.5364 153.586C48.02 155.267 45.9277 157.13 45.5768 158.872C45.477 159.373 45.4978 160.117 45.5779 160.922H44.2126C44.0503 158.801 44.0262 156.826 44.0558 155.224C44.1095 152.42 45.6426 149.858 48.0858 148.476C54.7037 144.729 61.6867 146.126 66.2836 147.891C69.4758 149.114 71.5177 152.244 71.3554 155.647C71.2775 157.264 71.158 159.103 70.9726 160.922Z" fill="#2E3062"/>
<path d="M60.3781 162.133C60.3781 164.134 62.0088 165.762 64.0133 165.762C66.0179 165.762 67.6485 164.134 67.6485 162.133C67.6485 160.131 66.0179 158.503 64.0133 158.503C62.0088 158.503 60.3781 160.131 60.3781 162.133ZM59.707 162.133C59.707 159.761 61.6381 157.833 64.0133 157.833C66.3874 157.833 68.3196 159.761 68.3196 162.133C68.3196 164.504 66.3874 166.432 64.0133 166.432C61.6381 166.432 59.707 164.504 59.707 162.133Z" fill="white"/>
<path d="M48.632 162.133C48.632 164.134 50.2627 165.762 52.2672 165.762C54.2718 165.762 55.9024 164.134 55.9024 162.133C55.9024 160.131 54.2718 158.503 52.2672 158.503C50.2627 158.503 48.632 160.131 48.632 162.133ZM47.9609 162.133C47.9609 159.761 49.892 157.833 52.2672 157.833C54.6414 157.833 56.5735 159.761 56.5735 162.133C56.5735 164.504 54.6414 166.432 52.2672 166.432C49.892 166.432 47.9609 164.504 47.9609 162.133Z" fill="white"/>
<path d="M67.8728 161.015C67.9583 161.015 68.0439 160.982 68.1086 160.917C68.1283 160.899 70.0846 159.003 72.6506 159.6C72.8305 159.644 73.0125 159.531 73.0542 159.351C73.0959 159.17 72.984 158.99 72.8042 158.948C69.8686 158.264 67.7259 160.353 67.6359 160.442C67.5043 160.572 67.5043 160.785 67.6348 160.916C67.7006 160.982 67.7862 161.015 67.8728 161.015Z" fill="white"/>
<path d="M48.9323 160.62C49.042 160.62 49.1494 160.566 49.213 160.467C49.315 160.313 49.2712 160.105 49.1165 160.004C48.9882 159.92 45.9408 157.957 43.3474 158.384C43.1654 158.413 43.0403 158.586 43.071 158.769C43.1018 158.951 43.2728 159.075 43.457 159.045C45.7906 158.661 48.7196 160.546 48.7492 160.565C48.8062 160.602 48.8687 160.62 48.9323 160.62Z" fill="white"/>
<path d="M56.338 161.057C56.3446 161.046 57.1429 159.97 58.1912 159.97C59.2297 159.97 59.9501 161.044 59.9578 161.055L60.5193 160.689C60.482 160.632 59.597 159.3 58.1912 159.3C56.7953 159.3 55.8335 160.609 55.793 160.665L56.338 161.057Z" fill="white"/>
<path d="M98.9622 235.579L108.554 242.926C109.767 243.853 111.504 243.625 112.433 242.413L131.068 218.155L138.776 208.123L124.795 197.414L120.229 203.357L98.4512 231.706C97.5202 232.915 97.7494 234.648 98.9622 235.579Z" fill="#FFAA01"/>
<path d="M119.65 203.601C121.592 208.17 124.931 213.912 130.488 218.399L138.197 208.367L124.215 197.657L119.65 203.601Z" fill="#F88800"/>
<path d="M70.5161 282.186L71.0874 282.624C73.3267 284.338 76.5331 283.916 78.2503 281.681L108.222 242.665L99.5428 236.017L69.5709 275.035C67.8536 277.269 68.2769 280.472 70.5161 282.186Z" fill="#2E3062"/>
<path d="M126.025 142.073C140.2 123.816 166.607 120.473 184.894 134.626C203.179 148.78 206.523 175.148 192.348 193.405C178.176 211.662 151.768 215.003 133.481 200.851C115.196 186.697 111.852 160.329 126.025 142.073ZM120.018 137.424C103.252 159.022 107.193 190.104 128.825 206.848C150.459 223.591 181.587 219.653 198.354 198.054C215.123 176.454 211.182 145.372 189.55 128.629C167.917 111.885 136.787 115.824 120.018 137.424Z" fill="#2E3062"/>
<g opacity="0.4">
<g opacity="0.4">
<path opacity="0.4" d="M117.902 156.667C111.929 178.983 125.252 201.992 147.604 207.958C149.521 208.469 151.444 208.838 153.362 209.072C158.331 209.68 163.257 209.38 167.949 208.281C172.841 207.133 177.475 205.122 181.628 202.369C188.159 198.051 193.503 191.908 196.809 184.439C197.675 182.482 198.401 180.431 198.972 178.3C204.945 155.982 191.622 132.972 169.271 127.008C167.135 126.439 164.994 126.043 162.86 125.817C154.728 124.951 146.727 126.513 139.722 130.01C135.262 132.232 131.204 135.239 127.77 138.901C124.476 142.411 121.758 146.525 119.806 151.127C119.052 152.904 118.414 154.753 117.902 156.667Z" fill="white"/>
</g>
</g>
<g opacity="0.4">
<g opacity="0.4">
<path opacity="0.4" d="M139.967 130.469L181.816 202.862C188.344 198.538 193.687 192.387 196.994 184.912L163.091 126.263C154.965 125.399 146.969 126.967 139.967 130.469Z" fill="white"/>
</g>
</g>
<g opacity="0.4">
<g opacity="0.4">
<path opacity="0.4" d="M119.783 150.849L153.293 208.821C158.257 209.428 163.182 209.125 167.87 208.022L127.746 138.612C124.453 142.126 121.734 146.243 119.783 150.849Z" fill="white"/>
</g>
</g>
<path d="M78.1441 256.373H79.8329C81.3418 256.373 82.4888 255.486 83.1654 254.14C83.4648 253.545 83.8716 252.456 84.1523 252.082C84.9419 251.031 87.0956 249.268 87.9026 249.213C88.7097 249.159 88.5606 250.658 87.9904 251.315C87.4201 251.972 86.5209 252.808 86.0384 253.737C85.5559 254.665 89.9851 256.548 91.7835 256.987C93.5819 257.424 96.74 256.46 97.046 257.949C97.3541 259.439 94.9855 259.657 94.9855 259.657C94.9855 259.657 95.6796 260.999 93.7135 262.109C93.7135 262.109 94.0644 263.423 92.7923 264.124C92.7923 264.124 92.9371 265.788 91.4611 266.226C89.9851 266.663 85.3805 267.997 76.3457 262.524L78.1441 256.373Z" fill="#FBA691"/>
<path d="M47.2792 218.27C50.6896 231.14 54.0364 236.83 54.0364 236.83C54.0364 236.83 57.8635 242.669 65.7282 248.194C71.1914 252.03 79.9696 256.567 79.9696 256.567C78.4552 258.532 77.386 262.418 77.9705 263.581C59.7222 263.581 43.7614 246.317 43.7614 246.317C30.9916 224.13 30.1593 206.06 30.3687 199.477C30.4422 197.16 31.1177 194.889 32.3963 192.953C33.0565 191.952 33.8822 191.028 34.8516 190.574C34.8516 190.574 40.3257 192.609 42.2283 199.023C44.1298 205.435 47.2792 218.27 47.2792 218.27Z" fill="#542BDA"/>
<path d="M130.335 220.292C130.335 220.292 126.276 218.859 124.41 219.634C122.545 220.409 127.715 223.205 127.715 223.205C127.715 223.205 121.448 219.875 120.365 221.218C119.283 222.559 125.279 225.969 125.279 225.969C125.279 225.969 120.689 224.358 119.756 225.304C118.823 226.25 123.103 228.921 123.103 228.921C123.103 228.921 119.335 228.013 118.549 228.652C117.763 229.291 121.103 231.97 123.223 232.679C125.342 233.389 125.685 230.408 125.685 230.408C125.685 230.408 127.678 228.655 127.413 227.438C127.413 227.438 129.482 226.045 129.628 224.622C129.628 224.622 132.547 222.054 130.335 220.292Z" fill="#FBA691"/>
<path d="M235.887 396.689C235.887 400.789 212.932 404.113 184.617 404.113C156.301 404.113 133.347 400.789 133.347 396.689C133.347 392.591 156.301 389.268 184.617 389.268C212.932 389.268 235.887 392.591 235.887 396.689Z" fill="#E8E8F9"/>
<path d="M466.951 93.0751C469.199 93.0751 471.029 91.2487 471.029 89.0042C471.029 86.7585 469.199 84.9322 466.951 84.9322C464.702 84.9322 462.873 86.7585 462.873 89.0042C462.873 91.2487 464.702 93.0751 466.951 93.0751ZM466.951 83.0708C470.227 83.0708 472.892 85.7325 472.892 89.0042C472.892 92.2747 470.227 94.9364 466.951 94.9364C463.676 94.9364 461.01 92.2747 461.01 89.0042C461.01 85.7325 463.676 83.0708 466.951 83.0708Z" fill="#6B5EFF"/>
<path d="M445.418 72.0621C447.667 72.0621 449.496 70.2358 449.496 67.9912C449.496 65.7455 447.667 63.9192 445.418 63.9192C443.17 63.9192 441.341 65.7455 441.341 67.9912C441.341 70.2358 443.17 72.0621 445.418 72.0621ZM445.418 62.0579C448.694 62.0579 451.36 64.7196 451.36 67.9912C451.36 71.2617 448.694 73.9235 445.418 73.9235C442.142 73.9235 439.477 71.2617 439.477 67.9912C439.477 64.7196 442.142 62.0579 445.418 62.0579Z" fill="#FFAA01"/>
<path d="M438.452 43.0007C438.967 43.0007 439.385 43.4168 439.385 43.9314V48.0352C439.385 48.5487 438.967 48.9658 438.452 48.9658C437.937 48.9658 437.52 48.5487 437.52 48.0352V43.9314C437.52 43.4168 437.937 43.0007 438.452 43.0007Z" fill="#6B5EFF"/>
<path d="M438.452 35.6704C438.967 35.6704 439.385 36.0865 439.385 36.6011V40.7048C439.385 41.2184 438.967 41.6355 438.452 41.6355C437.937 41.6355 437.52 41.2184 437.52 40.7048V36.6011C437.52 36.0865 437.937 35.6704 438.452 35.6704Z" fill="#6B5EFF"/>
<path d="M432.577 41.5364H436.269C436.783 41.5364 437.201 41.9535 437.201 42.4671C437.201 42.9806 436.783 43.3977 436.269 43.3977H432.577C432.061 43.3977 431.645 42.9806 431.645 42.4671C431.645 41.9535 432.061 41.5364 432.577 41.5364Z" fill="#6B5EFF"/>
<path d="M440.41 41.5364H444.102C444.616 41.5364 445.034 41.9535 445.034 42.4671C445.034 42.9806 444.616 43.3977 444.102 43.3977H440.41C439.894 43.3977 439.477 42.9806 439.477 42.4671C439.477 41.9535 439.894 41.5364 440.41 41.5364Z" fill="#6B5EFF"/>
<path d="M470.752 65.9683C471.266 65.9683 471.684 66.3854 471.684 66.8989V71.0027C471.684 71.5173 471.266 71.9334 470.752 71.9334C470.236 71.9334 469.818 71.5173 469.818 71.0027V66.8989C469.818 66.3854 470.236 65.9683 470.752 65.9683Z" fill="#FFAA01"/>
<path d="M470.752 58.6379C471.266 58.6379 471.684 59.054 471.684 59.5686V63.6724C471.684 64.1859 471.266 64.6031 470.752 64.6031C470.236 64.6031 469.818 64.1859 469.818 63.6724V59.5686C469.818 59.054 470.236 58.6379 470.752 58.6379Z" fill="#FFAA01"/>
<path d="M464.877 64.501H468.57C469.085 64.501 469.502 64.917 469.502 65.4317C469.502 65.9452 469.085 66.3623 468.57 66.3623H464.877C464.363 66.3623 463.945 65.9452 463.945 65.4317C463.945 64.917 464.363 64.501 464.877 64.501Z" fill="#FFAA01"/>
<path d="M472.711 64.501H476.404C476.918 64.501 477.336 64.917 477.336 65.4317C477.336 65.9452 476.918 66.3623 476.404 66.3623H472.711C472.197 66.3623 471.779 65.9452 471.779 65.4317C471.779 64.917 472.197 64.501 472.711 64.501Z" fill="#FFAA01"/>
<path d="M109.532 53.8202C109.532 56.0648 111.361 57.8911 113.609 57.8911C115.858 57.8911 117.687 56.0648 117.687 53.8202C117.687 51.5756 115.858 49.7493 113.609 49.7493C111.361 49.7493 109.532 51.5756 109.532 53.8202ZM119.552 53.8202C119.552 57.0907 116.886 59.7525 113.609 59.7525C110.334 59.7525 107.668 57.0907 107.668 53.8202C107.668 50.5486 110.334 47.8879 113.609 47.8879C116.886 47.8879 119.552 50.5486 119.552 53.8202Z" fill="#6B5EFF"/>
<path d="M132.044 34.2736C132.044 36.5182 133.873 38.3445 136.121 38.3445C138.37 38.3445 140.199 36.5182 140.199 34.2736C140.199 32.029 138.37 30.2027 136.121 30.2027C133.873 30.2027 132.044 32.029 132.044 34.2736ZM142.063 34.2736C142.063 37.5441 139.398 40.2058 136.121 40.2058C132.845 40.2058 130.18 37.5441 130.18 34.2736C130.18 31.002 132.845 28.3413 136.121 28.3413C139.398 28.3413 142.063 31.002 142.063 34.2736Z" fill="#FFAA01"/>
<path d="M143.982 62.0117C143.982 62.5253 143.565 62.9424 143.05 62.9424H138.94C138.426 62.9424 138.008 62.5253 138.008 62.0117C138.008 61.4982 138.426 61.0811 138.94 61.0811H143.05C143.565 61.0811 143.982 61.4982 143.982 62.0117Z" fill="#6B5EFF"/>
<path d="M150.837 62.0117C150.837 62.5253 150.421 62.9424 149.905 62.9424H145.795C145.281 62.9424 144.863 62.5253 144.863 62.0117C144.863 61.4982 145.281 61.0811 145.795 61.0811H149.905C150.421 61.0811 150.837 61.4982 150.837 62.0117Z" fill="#6B5EFF"/>
<path d="M144.768 56.6362V60.3228C144.768 60.8364 144.352 61.2535 143.836 61.2535C143.322 61.2535 142.904 60.8364 142.904 60.3228V56.6362C142.904 56.1227 143.322 55.7056 143.836 55.7056C144.352 55.7056 144.768 56.1227 144.768 56.6362Z" fill="#6B5EFF"/>
<path d="M144.768 64.4549V68.1414C144.768 68.655 144.352 69.0721 143.836 69.0721C143.322 69.0721 142.904 68.655 142.904 68.1414V64.4549C142.904 63.9413 143.322 63.5242 143.836 63.5242C144.352 63.5242 144.768 63.9413 144.768 64.4549Z" fill="#6B5EFF"/>
<path d="M99.9391 30.2488C99.9391 30.7623 99.5224 31.1795 99.007 31.1795H94.8969C94.3826 31.1795 93.9648 30.7623 93.9648 30.2488C93.9648 29.7342 94.3826 29.3181 94.8969 29.3181H99.007C99.5224 29.3181 99.9391 29.7342 99.9391 30.2488Z" fill="#FFAA01"/>
<path d="M106.791 30.2488C106.791 30.7623 106.374 31.1795 105.859 31.1795H101.749C101.234 31.1795 100.816 30.7623 100.816 30.2488C100.816 29.7342 101.234 29.3181 101.749 29.3181H105.859C106.374 29.3181 106.791 29.7342 106.791 30.2488Z" fill="#FFAA01"/>
<path d="M101.702 24.3858V28.0723C101.702 28.5859 101.284 29.003 100.77 29.003C100.256 29.003 99.8379 28.5859 99.8379 28.0723V24.3858C99.8379 23.8711 100.256 23.4551 100.77 23.4551C101.284 23.4551 101.702 23.8711 101.702 24.3858Z" fill="#FFAA01"/>
<path d="M101.702 32.2034V35.89C101.702 36.4035 101.284 36.8207 100.77 36.8207C100.256 36.8207 99.8379 36.4035 99.8379 35.89V32.2034C99.8379 31.6899 100.256 31.2727 100.77 31.2727C101.284 31.2727 101.702 31.6899 101.702 32.2034Z" fill="#FFAA01"/>
<path d="M21.9863 186.947H10.1081C6.14831 186.947 2.9375 183.741 2.9375 179.786V167.927C2.9375 163.972 6.14831 160.766 10.1081 160.766H21.9863C25.9472 160.766 29.158 163.972 29.158 167.927V179.786C29.158 183.741 25.9472 186.947 21.9863 186.947Z" fill="#FFAA01"/>
<path d="M20.9351 168.512C19.4021 167.098 17.0027 167.194 15.5881 168.725C14.1724 170.256 14.2689 172.651 15.802 174.064C17.335 175.477 19.7343 175.381 21.1489 173.85C22.5646 172.32 22.4681 169.925 20.9351 168.512ZM14.5387 175.431C12.2512 173.323 12.1076 169.748 14.2185 167.464C16.3305 165.18 19.9098 165.036 22.1984 167.144C24.4869 169.253 24.6295 172.827 22.5175 175.112C20.4065 177.397 16.8262 177.54 14.5387 175.431Z" fill="white"/>
<path d="M8.12977 181.832C7.75145 181.484 7.72842 180.896 8.07714 180.518L14.3156 173.769C14.6632 173.392 15.2532 173.368 15.6315 173.716C16.0099 174.064 16.0329 174.652 15.6842 175.03L9.44568 181.779C9.09696 182.157 8.507 182.18 8.12977 181.832Z" fill="white"/>
<path d="M467.336 141.502H455.458C451.498 141.502 448.287 138.296 448.287 134.341V122.482C448.287 118.527 451.498 115.321 455.458 115.321H467.336C471.296 115.321 474.507 118.527 474.507 122.482V134.341C474.507 138.296 471.296 141.502 467.336 141.502Z" fill="#FFAA01"/>
<path d="M457.096 133.53V123.499C457.096 122.863 457.771 122.455 458.336 122.749L463.241 125.308L467.95 127.764C468.557 128.08 468.557 128.947 467.95 129.264L463.241 131.72L458.336 134.28C457.771 134.573 457.096 134.165 457.096 133.53Z" fill="white"/>
<path d="M384.904 73.0993H283.081C275.936 73.0993 270.145 67.3159 270.145 60.1825V58.3606C270.145 51.2272 275.936 45.4438 283.081 45.4438H384.904C392.048 45.4438 397.84 51.2272 397.84 58.3606V60.1825C397.84 67.3159 392.048 73.0993 384.904 73.0993Z" fill="#FFAA01"/>
<path d="M383.753 62.7299V66.5369C383.253 66.2237 381.689 65.0982 380.776 62.7299H383.753ZM380.07 62.7299C380.414 63.7021 380.895 64.5825 381.499 65.3489C381.811 65.7442 382.152 66.1055 382.514 66.4252C380.406 65.9785 378.551 64.6175 377.486 62.7299H380.07ZM376.534 58.5297C376.602 57.5213 376.865 56.5534 377.322 55.6512H379.983C379.666 56.5841 379.488 57.552 379.452 58.5297H376.534ZM383.753 59.19V62.0685H380.549C380.28 61.1784 380.133 60.2115 380.11 59.19H383.753ZM377.698 54.9899C378.772 53.3048 380.47 52.1081 382.405 51.6679C382.024 52.0675 381.667 52.5044 381.342 52.9708C380.9 53.6037 380.528 54.2826 380.233 54.9899H377.698ZM383.753 55.6512V58.5297H380.115C380.154 57.5498 380.346 56.5819 380.685 55.6512H383.753ZM380.954 54.9899C381.209 54.4227 381.518 53.8763 381.874 53.3639C382.565 52.3686 383.259 51.738 383.545 51.4993C383.614 51.4938 383.684 51.4905 383.753 51.4872V54.9899H380.954ZM379.86 62.0685H377.154C376.752 61.1586 376.54 60.1907 376.519 59.19H379.448C379.471 60.2017 379.609 61.1696 379.86 62.0685ZM391.649 59.19C391.63 60.1907 391.415 61.1586 391.014 62.0685H388.385C388.636 61.1696 388.775 60.2017 388.797 59.19H391.649ZM388.793 58.5297C388.757 57.552 388.578 56.5841 388.262 55.6512H390.849C391.303 56.5523 391.567 57.5202 391.634 58.5297H388.793ZM384.415 58.5297V55.6512H387.56C387.9 56.5786 388.092 57.5465 388.131 58.5297H384.415ZM388.013 54.9899C387.718 54.2826 387.344 53.6037 386.904 52.9708C386.584 52.5132 386.236 52.084 385.863 51.6898C387.756 52.1475 389.417 53.3366 390.472 54.9899H388.013ZM384.415 54.9899V51.4872C384.513 51.4916 384.612 51.4982 384.709 51.5058C385.122 51.854 386.412 53.0486 387.291 54.9899H384.415ZM387.472 62.7299C387.16 63.5379 386.747 64.2748 386.242 64.9197C385.454 65.9248 384.664 66.4362 384.415 66.5829V62.7299H387.472ZM386.746 65.3489C387.35 64.5825 387.831 63.7021 388.176 62.7299H390.682C389.624 64.6109 387.846 65.9336 385.755 66.4044C386.109 66.0891 386.441 65.7354 386.746 65.3489ZM384.415 62.0685V59.19H388.135C388.112 60.2072 387.965 61.1762 387.696 62.0685H384.415ZM384.084 50.8193C379.547 50.8193 375.855 54.5048 375.855 59.0345C375.855 63.5653 379.547 67.2508 384.084 67.2508C388.621 67.2508 392.313 63.5653 392.313 59.0345C392.313 54.5048 388.621 50.8193 384.084 50.8193Z" fill="#F88800"/>
<path d="M362.775 50.3311H283.676C278.914 50.3311 275.041 54.1983 275.041 58.9524C275.041 63.7066 278.914 67.5738 283.676 67.5738H362.775C367.536 67.5738 371.409 63.7066 371.409 58.9524C371.409 54.1983 367.536 50.3311 362.775 50.3311ZM362.775 51.1391C367.09 51.1391 370.6 54.6439 370.6 58.9524C370.6 63.2609 367.09 66.7658 362.775 66.7658H283.676C279.36 66.7658 275.85 63.2609 275.85 58.9524C275.85 54.6439 279.36 51.1391 283.676 51.1391H362.775Z" fill="#F88800"/>
<path d="M450.244 401.58C450.244 405.678 425.285 409 394.497 409C363.708 409 338.75 405.678 338.75 401.58C338.75 397.48 363.708 394.156 394.497 394.156C425.285 394.156 450.244 397.48 450.244 401.58Z" fill="#E8E8F9"/>
<path d="M411.841 391.562H411.761C411.761 391.562 401.87 390.273 401.87 382.208V326.418H392.523V382.208C392.523 390.273 382.633 391.562 382.633 391.562H382.553C380.161 391.562 377.999 392.527 376.433 394.094C374.867 395.657 373.896 397.818 373.896 400.205H420.497C420.497 395.43 416.622 391.562 411.841 391.562Z" fill="#542BDA"/>
<path d="M441.993 326.811H352.365C353.846 318.645 360.978 312.714 369.291 312.737L397.178 312.811L425.066 312.737C433.38 312.714 440.511 318.645 441.993 326.811Z" fill="#6B5EFF"/>
<path d="M376.668 224.29C376.668 224.29 363.052 242.419 361.242 258.229C359.962 269.395 376.668 286.082 376.668 286.082L382.42 283.222L376.685 270.308C374.643 264.018 372.13 261.533 373.987 255.187L378.141 246.242L376.668 224.29Z" fill="#542BDA"/>
<path d="M419.718 224.29C419.718 224.29 433.155 243.621 434.268 259.495C435.228 273.182 418.778 286.356 418.778 286.356L414.027 283.994L420.607 270.946C422.648 264.657 423.618 260.864 420.835 254.021L417.303 246.516L419.718 224.29Z" fill="#542BDA"/>
<path d="M379.008 265.605L369.984 294.269C369.984 294.269 409.054 299.245 421.003 296.025L414.935 264.806L419.137 224.045C413.289 221.584 407.09 220.012 400.76 219.556C391.52 218.89 385.684 220.412 376.236 224.318L379.008 265.605Z" fill="#6B5EFF"/>
<path d="M389.276 233.323C397.895 232.315 405.916 226.405 406.28 226.133C406.492 225.973 406.536 225.673 406.377 225.46C406.218 225.247 405.917 225.205 405.703 225.362C405.61 225.432 396.172 232.384 387.096 232.507C386.827 232.509 386.618 232.729 386.621 232.994C386.624 233.259 386.843 233.472 387.108 233.468C387.833 233.458 388.557 233.408 389.276 233.323Z" fill="#542BDA"/>
<path d="M395.43 386.522L396.134 392.851L402.876 393.005L403.441 387.753L395.43 386.522Z" fill="#FBA691"/>
<path d="M394.29 286.425C394.29 286.425 376.832 285.468 370.92 290.299C365.007 295.13 366.196 308.991 372.219 312.776C378.244 316.561 388.511 323.998 388.511 323.998L395.043 388.834L403.675 389.127C403.675 389.127 411.627 323.998 407.595 311.384C403.563 298.771 394.29 286.425 394.29 286.425Z" fill="#001030"/>
<path d="M404.651 385.75C405.12 387.265 404.896 388.731 404.428 390.19L394.496 389.969C394.146 388.525 394.093 387.075 394.303 385.621L404.651 385.75Z" fill="#2E3062"/>
<path d="M419.099 285.845H373.287L369.053 261.125C368.686 258.985 370.337 257.029 372.514 257.029H419.872C422.047 257.029 423.7 258.985 423.332 261.125L419.099 285.845Z" fill="#FFAA01"/>
<path d="M415.783 291.237H377.867C375.674 291.237 373.896 289.462 373.896 287.272V285.861H419.754V287.272C419.754 289.462 417.976 291.237 415.783 291.237Z" fill="#F88800"/>
<path d="M400.326 272.602C400.326 274.797 398.544 276.576 396.347 276.576C394.149 276.576 392.367 274.797 392.367 272.602C392.367 270.408 394.149 268.629 396.347 268.629C398.544 268.629 400.326 270.408 400.326 272.602Z" fill="#FDCC50"/>
<path d="M367.045 368.932L365.551 375.196L371.6 376.39L374.064 370.796L367.045 368.932Z" fill="#FBA691"/>
<path d="M403.922 285.352C403.922 285.352 392.23 281.327 385.377 289.781C378.522 298.235 367.045 369.595 367.045 369.595L374.913 372.838L400.205 309.462C400.205 309.462 420.802 321.198 423.297 304.514C425.272 291.312 403.922 285.352 403.922 285.352Z" fill="#2E3062"/>
<path d="M376.515 369.685C376.488 371.322 375.794 372.689 374.862 373.969L365.193 370.555C365.315 369.025 365.731 367.586 366.407 366.227L376.515 369.685Z" fill="#524E84"/>
<path d="M370.437 373.938C370.437 373.938 366.771 372.08 365.692 371.868C364.612 371.655 355.699 377.971 353.173 377.908C348.593 377.797 347.126 384.511 349.729 385.425C357.258 388.068 371.192 387.739 371.192 387.739C371.192 387.739 374.287 379.389 374.345 376.568C374.403 373.749 372.426 375.202 370.437 373.938Z" fill="#FFAA01"/>
<path d="M362.119 379.979C362.25 380.038 362.405 380.047 362.55 379.992C362.829 379.884 362.965 379.573 362.853 379.296C362.816 379.204 361.914 377.023 360.43 376.01C358.457 374.66 356.64 375.597 356.563 375.638C356.298 375.778 356.201 376.104 356.347 376.365C356.492 376.626 356.826 376.724 357.092 376.582C357.141 376.558 358.402 375.931 359.809 376.889C361.018 377.715 361.828 379.669 361.837 379.688C361.892 379.821 361.995 379.922 362.119 379.979Z" fill="white"/>
<path d="M364.075 379.003C364.207 379.062 364.362 379.071 364.507 379.016C364.787 378.908 364.923 378.596 364.811 378.32C364.774 378.228 363.87 376.047 362.387 375.033C360.412 373.683 358.598 374.62 358.521 374.662C358.255 374.802 358.158 375.128 358.305 375.389C358.45 375.649 358.784 375.748 359.049 375.606C359.099 375.581 360.361 374.954 361.767 375.913C362.98 376.742 363.786 378.692 363.793 378.711C363.848 378.845 363.952 378.946 364.075 379.003Z" fill="white"/>
<path d="M360.162 380.957C360.292 381.017 360.448 381.025 360.593 380.97C360.873 380.862 361.01 380.549 360.897 380.274C360.859 380.182 359.957 378 358.473 376.987C356.498 375.637 354.683 376.574 354.607 376.614C354.341 376.756 354.245 377.082 354.39 377.342C354.535 377.603 354.87 377.7 355.135 377.559C355.185 377.535 356.447 376.908 357.853 377.867C359.065 378.696 359.871 380.646 359.879 380.664C359.934 380.798 360.038 380.9 360.162 380.957Z" fill="white"/>
<path d="M399.609 392.567C399.609 392.567 403.361 391.431 404.411 391.409C405.46 391.389 412.783 398.797 415.165 399.159C419.486 399.812 419.746 406.362 417.15 406.788C409.638 408.023 396.605 405.408 396.605 405.408C396.605 405.408 395.088 397.049 395.501 394.39C395.916 391.733 397.53 393.425 399.609 392.567Z" fill="#FFAA01"/>
<path d="M405.876 399.617C405.742 399.65 405.595 399.634 405.468 399.557C405.223 399.411 405.147 399.094 405.299 398.854C405.35 398.773 406.559 396.874 408.122 396.17C410.199 395.228 411.75 396.41 411.815 396.461C412.041 396.636 412.077 396.958 411.896 397.179C411.717 397.401 411.388 397.438 411.161 397.261C411.119 397.229 410.039 396.431 408.558 397.098C407.286 397.673 406.2 399.373 406.189 399.391C406.115 399.507 406.001 399.585 405.876 399.617Z" fill="white"/>
<path d="M403.917 398.151C403.784 398.185 403.637 398.169 403.51 398.092C403.264 397.944 403.188 397.628 403.34 397.388C403.391 397.307 404.601 395.408 406.163 394.703C408.242 393.76 409.79 394.943 409.856 394.994C410.082 395.17 410.118 395.491 409.938 395.713C409.757 395.935 409.428 395.971 409.202 395.795C409.16 395.762 408.08 394.964 406.599 395.632C405.322 396.21 404.242 397.907 404.231 397.924C404.157 398.04 404.042 398.119 403.917 398.151Z" fill="white"/>
<path d="M407.834 401.084C407.7 401.119 407.553 401.103 407.426 401.025C407.18 400.879 407.104 400.562 407.256 400.322C407.307 400.24 408.517 398.342 410.079 397.637C412.157 396.694 413.707 397.876 413.773 397.928C413.997 398.103 414.035 398.426 413.854 398.646C413.674 398.868 413.344 398.904 413.118 398.728C413.076 398.696 411.995 397.898 410.516 398.565C409.238 399.143 408.157 400.84 408.146 400.858C408.073 400.975 407.959 401.053 407.834 401.084Z" fill="white"/>
<path d="M383.5 201.609C383.5 201.609 377.895 192.043 382.621 184.657C387.348 177.27 397.387 177.967 399.987 178.548C402.587 179.128 417.559 186.137 408.504 203.135L383.5 201.609Z" fill="#2E3062"/>
<path d="M384.271 198.925C384.271 198.925 382.003 195.906 380.317 198.402C378.629 200.901 381.014 208.276 385.144 206.476L384.271 198.925Z" fill="#FB876B"/>
<path d="M384.34 203.996C384.187 203.996 384.047 203.896 384.003 203.742C383.364 201.464 381 200.541 380.977 200.532C380.798 200.463 380.707 200.263 380.774 200.083C380.844 199.903 381.044 199.813 381.224 199.879C381.335 199.921 383.939 200.93 384.676 203.554C384.728 203.739 384.619 203.931 384.434 203.982C384.403 203.992 384.37 203.996 384.34 203.996Z" fill="#D45C48"/>
<path d="M382.079 202.945C382.013 202.945 381.949 202.927 381.891 202.889C381.728 202.785 381.682 202.57 381.785 202.409C381.803 202.38 382.222 201.745 383.095 201.354C383.271 201.276 383.477 201.354 383.557 201.53C383.635 201.705 383.557 201.912 383.38 201.99C382.704 202.292 382.376 202.781 382.373 202.785C382.306 202.888 382.193 202.945 382.079 202.945Z" fill="#D45C48"/>
<path d="M408.051 198.925C408.051 198.925 410.318 195.906 412.005 198.402C413.693 200.901 411.307 208.276 407.178 206.476L408.051 198.925Z" fill="#FB876B"/>
<path d="M408.504 203.996C408.656 203.996 408.797 203.896 408.839 203.742C409.48 201.464 411.843 200.541 411.866 200.532C412.046 200.463 412.137 200.263 412.069 200.083C412 199.903 411.799 199.813 411.619 199.879C411.508 199.921 408.904 200.93 408.167 203.554C408.116 203.739 408.223 203.931 408.41 203.982C408.44 203.992 408.473 203.996 408.504 203.996Z" fill="#D45C48"/>
<path d="M410.643 202.945C410.708 202.945 410.773 202.927 410.831 202.889C410.993 202.785 411.039 202.57 410.936 202.409C410.919 202.38 410.5 201.745 409.625 201.354C409.451 201.276 409.245 201.354 409.165 201.53C409.087 201.705 409.165 201.912 409.341 201.99C410.018 202.292 410.346 202.781 410.349 202.785C410.416 202.888 410.529 202.945 410.643 202.945Z" fill="#D45C48"/>
<path d="M402.264 212.563V219.898C402.264 219.898 400.073 223.633 397.11 223.888C394.15 224.147 391.52 220.671 391.52 220.671V213.079L402.264 212.563Z" fill="#FBA691"/>
<path d="M402.264 212.563V215.818C400.276 218.021 396.745 218.57 391.52 217.8V213.079L402.264 212.563Z" fill="#FB876B"/>
<path d="M410.058 193.923C409.922 196.774 409.65 200.338 409.106 203.189C408.969 203.9 408.816 204.57 408.644 205.169C407.099 210.573 403.232 219.843 392.405 215.981C387.624 214.278 385.408 208.96 384.42 203.552C383.751 199.878 383.649 196.168 383.698 193.516C383.751 190.808 385.229 188.333 387.59 186.999C393.98 183.382 400.722 184.73 405.162 186.435C408.244 187.616 410.216 190.637 410.058 193.923Z" fill="#FBA691"/>
<path d="M393.473 183.244C393.473 183.244 407.758 206.124 409.728 197.731C412.52 185.839 403.986 178.482 393.473 183.244Z" fill="#2E3062"/>
<path d="M393.22 183.243C383.712 183.313 378.985 194.1 383.393 195.376C389.528 197.153 394.849 188.483 396.486 185.474C395.384 184.749 394.281 184.025 393.22 183.243Z" fill="#2E3062"/>
<path d="M410.111 178.254C410.111 183.439 405.903 187.642 400.71 187.642C395.516 187.642 391.307 183.439 391.307 178.254C391.307 173.07 395.516 168.866 400.71 168.866C405.903 168.866 410.111 173.07 410.111 178.254Z" fill="#2E3062"/>
<path d="M384.684 194.729C384.684 194.729 385.424 197.598 384.414 199.528C383.404 201.457 383.958 204.764 384.414 208.481C384.414 208.481 382.808 206.215 382.715 202.585C382.622 198.956 383.216 195.936 382.715 194.484L384.684 194.729Z" fill="#2E3062"/>
<path d="M407.439 194.729C407.439 194.729 406.699 197.598 407.709 199.528C408.719 201.457 408.164 204.764 407.709 208.481C407.709 208.481 409.313 206.215 409.408 202.585C409.501 198.956 408.907 195.936 409.408 194.484L407.439 194.729Z" fill="#2E3062"/>
<path d="M391.52 199.906C391.52 200.69 391.115 201.324 390.617 201.324C390.118 201.324 389.715 200.69 389.715 199.906C389.715 199.123 390.118 198.488 390.617 198.488C391.115 198.488 391.52 199.123 391.52 199.906Z" fill="#2E3062"/>
<path d="M403.262 199.906C403.262 200.69 402.857 201.324 402.359 201.324C401.86 201.324 401.457 200.69 401.457 199.906C401.457 199.123 401.86 198.488 402.359 198.488C402.857 198.488 403.262 199.123 403.262 199.906Z" fill="#2E3062"/>
<path d="M389.055 195.062C389.805 194.851 391.318 194.488 392.916 194.484C393.337 194.483 393.658 194.856 393.585 195.269L393.583 195.28C393.524 195.609 393.229 195.843 392.893 195.827C391.806 195.777 388.952 195.929 387.605 196.474C387.577 196.24 387.716 195.985 387.912 195.757C388.209 195.412 388.617 195.186 389.055 195.062Z" fill="#2E3062"/>
<path d="M403.886 195.062C403.135 194.851 401.622 194.489 400.025 194.484C399.604 194.483 399.282 194.856 399.356 195.269L399.359 195.28C399.418 195.609 399.713 195.843 400.048 195.827C401.135 195.777 403.99 195.929 405.336 196.474C405.365 196.241 405.225 195.985 405.029 195.757C404.732 195.412 404.324 195.186 403.886 195.062Z" fill="#2E3062"/>
<path d="M396.727 205.699C396.46 205.699 396.192 205.651 395.969 205.518C395.764 205.395 395.511 205.149 395.461 204.667C395.329 203.386 395.655 199.371 395.67 199.2C395.686 199.01 395.854 198.866 396.047 198.882C396.239 198.898 396.382 199.066 396.366 199.258C396.363 199.299 396.028 203.379 396.155 204.595C396.176 204.807 396.263 204.882 396.327 204.919C396.654 205.116 397.411 204.915 397.726 204.788C397.905 204.714 398.11 204.801 398.181 204.978C398.254 205.157 398.168 205.359 397.99 205.433C397.899 205.47 397.316 205.699 396.727 205.699Z" fill="#FB876B"/>
<path d="M396.256 213.686C395.404 213.686 394.65 213.228 394.619 213.208C394.454 213.107 394.405 212.892 394.505 212.728C394.607 212.565 394.82 212.515 394.985 212.615C394.991 212.618 395.606 212.989 396.256 212.989C396.96 212.989 397.59 212.617 397.597 212.613C397.761 212.515 397.975 212.569 398.075 212.733C398.174 212.896 398.121 213.111 397.958 213.209C397.924 213.229 397.158 213.686 396.256 213.686Z" fill="#FB876B"/>
</svg>
