<svg width="65" height="50" viewBox="0 0 65 50" fill="none" xmlns="http://www.w3.org/2000/svg">
<path fill-rule="evenodd" clip-rule="evenodd" d="M27.1564 9.89128C22.7067 11.4305 19.1277 14.7948 17.343 19.0736L32.4421 19.1276L27.1564 9.89128ZM43.1171 13.2114C39.5948 10.12 34.8755 8.66439 30.2151 9.19962L37.4874 22.2478L43.1171 13.2114ZM48.3331 28.1616C49.1657 23.5848 47.9586 18.8565 45.0607 15.2179L37.578 28.1498L48.3331 28.1616ZM37.569 40.3771C42.0187 38.838 45.5977 35.4736 47.3824 31.1948L32.2832 31.1408L37.569 40.3771ZM21.6083 37.057C25.1307 40.1484 29.8499 41.604 34.5103 41.0688L27.238 28.0206L21.6083 37.057ZM16.3922 22.1068C15.5596 26.6836 16.7668 31.4119 19.6647 35.0505L27.1475 22.1186L16.3922 22.1068Z" fill="#3B82F6"/>
<path d="M1.64757 25H0C0.0247385 25.0525 0.143207 25.4056 0.212505 25.5442C0.32644 25.7722 0.462195 26.0359 0.619614 26.3323C1.06775 27.1758 1.60078 28.1144 2.2174 29.1244C3.97813 32.0086 6.05863 34.8924 8.45065 37.5869C15.3265 45.3321 23.3531 50 32.4592 50C41.5652 50 49.5918 45.3321 56.4677 37.5869C58.8598 34.8924 60.9402 32.0086 62.701 29.1244C63.3175 28.1144 63.8507 27.1758 64.2986 26.3323C64.4561 26.0359 64.592 25.7722 64.7057 25.5442C64.7749 25.4056 64.9754 25.0525 65 25H63.3636C63.3436 25.0424 63.117 25.3961 62.9651 25.6811C62.5307 26.4989 61.9659 27.3629 61.3655 28.3464C59.649 31.1582 57.6203 33.9702 55.293 36.5918C48.6847 44.0356 41.0405 48.4811 32.4592 48.4811C23.8779 48.4811 16.2338 44.0356 9.62542 36.5918C7.29801 33.9702 5.26945 31.1582 3.55289 28.3464C2.95241 27.3629 2.43421 26.4504 1.99975 25.6326C1.8484 25.3477 1.64788 25.0005 1.64757 25H0C0.0247385 24.9475 0.143207 24.5944 0.212505 24.4558C0.32644 24.2278 0.462195 23.9641 0.619614 23.6677C1.06775 22.8242 1.60078 21.8856 2.2174 20.8756C3.97813 17.9914 6.05863 15.1076 8.45065 12.4131C15.3265 4.66788 23.3531 0 32.4592 0C41.5652 0 49.5918 4.66788 56.4677 12.4131C58.8598 15.1076 60.9402 17.9914 62.701 20.8756C63.3175 21.8856 63.8507 22.8242 64.2986 23.6677C64.4561 23.9641 64.592 24.2278 64.7057 24.4558C64.7749 24.5944 64.9754 24.9475 65 25H63.3636C63.3436 24.9576 63.117 24.6039 62.9651 24.3189C62.5307 23.5011 61.9659 22.6371 61.3655 21.6536C59.649 18.8418 57.6203 16.0298 55.293 13.4082C48.6847 5.96439 41.0405 1.51886 32.4592 1.51886C23.8779 1.51886 16.2338 5.96439 9.62542 13.4082C7.29801 16.0298 5.26945 18.8418 3.55289 21.6536C2.95241 22.6371 2.43421 23.5496 1.99975 24.3674C1.8484 24.6523 1.64788 24.9995 1.64757 25Z" fill="#3B82F6"/>
</svg>
